<svg width="413" height="72" viewBox="0 0 413 72" fill="none" xmlns="http://www.w3.org/2000/svg">
<path d="M1.55609e-05 70.2828V4.32657H34.6126C38.7148 4.32657 42.112 5.12779 44.8041 6.73022C47.4962 8.33266 49.5153 10.4799 50.8613 13.172C52.2073 15.8641 52.8804 18.9087 52.8804 22.3059C52.8804 27.1132 51.7587 31.1513 49.5153 34.4203C47.2718 37.6252 44.4516 39.8045 41.0544 40.9582L55.1879 70.2828H49.4191L35.7664 41.9197H5.19191V70.2828H1.55609e-05ZM5.19191 37.3047H33.8434C38.138 37.3047 41.5031 35.9586 43.9388 33.2665C46.4386 30.5745 47.6885 26.8889 47.6885 22.2097C47.6885 19.4536 47.1757 17.114 46.1501 15.1911C45.1246 13.2041 43.5862 11.6657 41.5351 10.5761C39.484 9.48641 36.9201 8.94159 33.8434 8.94159H5.19191V37.3047ZM86.1942 71.4365C81.6433 71.4365 77.7334 70.5071 74.4644 68.6483C71.2595 66.7254 68.7918 63.809 67.0612 59.899C65.3946 55.9891 64.5614 51.0215 64.5614 44.9964C64.5614 38.9071 65.3946 33.9396 67.0612 30.0937C68.7918 26.1838 71.3236 23.2994 74.6567 21.4406C77.9898 19.5177 82.092 18.5562 86.9634 18.5562C91.5784 18.5562 95.4243 19.4856 98.5009 21.3444C101.642 23.2033 104.013 25.8633 105.616 29.3246C107.218 32.7217 108.019 36.7599 108.019 41.439V46.2463H69.4648C69.4648 51.3741 70.1378 55.5083 71.4839 58.6491C72.894 61.7258 74.849 63.9372 77.3488 65.2832C79.9127 66.6292 82.9573 67.3023 86.4827 67.3023C89.4312 67.3023 91.931 66.9177 93.9821 66.1485C96.0332 65.3793 97.6997 64.3538 98.9817 63.0718C100.328 61.7899 101.321 60.3156 101.962 58.6491C102.667 56.9826 103.052 55.284 103.116 53.5534H107.539C107.475 55.7327 107.026 57.8799 106.193 59.9952C105.423 62.1104 104.206 64.0333 102.539 65.7639C100.873 67.4946 98.6932 68.8727 96.0011 69.8982C93.3091 70.9238 90.0401 71.4365 86.1942 71.4365ZM69.4648 42.112H103.212C103.212 38.4584 102.795 35.4138 101.962 32.9781C101.129 30.4783 99.9431 28.4913 98.4048 27.0171C96.9306 25.4787 95.1679 24.3891 93.1168 23.7481C91.1297 23.043 88.9184 22.6905 86.4827 22.6905C82.9573 22.6905 79.9447 23.3955 77.4449 24.8057C75.0092 26.1517 73.1184 28.2669 71.7723 31.1513C70.4263 33.9716 69.6571 37.6252 69.4648 42.112ZM132.751 70.2828L114.002 19.7099H118.906L129.289 47.8808C129.802 49.2268 130.347 50.8292 130.924 52.6881C131.565 54.4828 132.206 56.3096 132.847 58.1684C133.488 59.9631 134.033 61.5335 134.481 62.8795H134.962C135.475 61.5335 136.052 59.9631 136.693 58.1684C137.334 56.3096 138.007 54.4828 138.712 52.6881C139.417 50.8292 139.994 49.2268 140.442 47.8808L150.826 19.7099H155.441L136.693 70.2828H132.751ZM175.532 71.4365C173.224 71.4365 171.077 71.1481 169.09 70.5712C167.167 70.0585 165.469 69.2572 163.994 68.1676C162.584 67.0138 161.463 65.5716 160.629 63.841C159.86 62.1104 159.476 60.0593 159.476 57.6877C159.476 54.1623 160.373 51.31 162.168 49.1307C163.962 46.9513 166.462 45.2848 169.667 44.1311C172.872 42.9132 176.654 42.112 181.012 41.7274C185.371 41.2787 190.082 41.0544 195.146 41.0544V33.4588C195.146 31.1513 194.697 29.1964 193.8 27.5939C192.966 25.9915 191.46 24.7736 189.281 23.9404C187.166 23.1071 184.217 22.6905 180.435 22.6905C176.846 22.6905 173.994 23.1712 171.878 24.1327C169.827 25.03 168.353 26.2799 167.456 27.8824C166.622 29.4207 166.206 31.1513 166.206 33.0743V34.7087H161.783C161.719 34.3883 161.687 34.0678 161.687 33.7473C161.687 33.4268 161.687 33.0422 161.687 32.5935C161.687 29.2605 162.52 26.5684 164.187 24.5173C165.853 22.4661 168.193 20.9598 171.205 19.9984C174.282 19.0369 177.807 18.5562 181.781 18.5562C185.563 18.5562 188.768 19.1331 191.396 20.2868C194.088 21.3765 196.139 22.9789 197.549 25.0941C199.024 27.1452 199.761 29.645 199.761 32.5935V64.1294C199.761 65.3473 199.953 66.1806 200.338 66.6292C200.722 67.0779 201.331 67.3023 202.164 67.3023H206.683V69.9944C205.53 70.5071 204.472 70.8597 203.511 71.052C202.549 71.2443 201.652 71.3404 200.818 71.3404C199.088 71.3404 197.806 70.9558 196.973 70.1866C196.203 69.3534 195.691 68.2637 195.434 66.9177C195.242 65.5075 195.146 64.0012 195.146 62.3988H194.473C193.191 64.3217 191.524 65.9562 189.473 67.3023C187.422 68.6483 185.211 69.6739 182.839 70.3789C180.467 71.084 178.032 71.4365 175.532 71.4365ZM175.917 67.3023C178.096 67.3023 180.307 66.9497 182.551 66.2447C184.794 65.4755 186.845 64.4179 188.704 63.0718C190.627 61.7258 192.165 60.1234 193.319 58.2645C194.537 56.3416 195.146 54.2264 195.146 51.9189V45.381C188.031 45.381 182.23 45.7655 177.743 46.5347C173.257 47.2398 169.923 48.4897 167.744 50.2844C165.629 52.0791 164.571 54.5789 164.571 57.7838C164.571 60.0913 165.084 61.9501 166.11 63.3603C167.135 64.7704 168.513 65.796 170.244 66.437C171.975 67.0138 173.865 67.3023 175.917 67.3023Z" fill="#17322B"/>
<path d="M215.457 70.2828V4.32657H224.591V62.3027H257.376V70.2828H215.457ZM265.369 10.1915V0.769163H273.83V10.1915H265.369ZM265.369 70.2828V19.7099H273.83V70.2828H265.369ZM288.984 70.2828V26.8248H281.484V19.7099H288.984V11.6337C288.984 9.64665 289.272 7.78783 289.849 6.0572C290.426 4.26247 291.515 2.82028 293.118 1.73062C294.72 0.576874 296.964 -1.29027e-06 299.848 -1.29027e-06C300.745 -1.29027e-06 301.611 0.0640953 302.444 0.192288C303.341 0.256385 304.175 0.38458 304.944 0.576874C305.777 0.705067 306.514 0.86531 307.155 1.0576V7.11481H302.059C300.457 7.11481 299.271 7.53144 298.502 8.3647C297.797 9.13387 297.444 10.2556 297.444 11.7298V19.7099H307.155V26.8248H297.444V70.2828H288.984ZM333.633 71.4365C328.633 71.4365 324.403 70.5071 320.942 68.6483C317.545 66.7254 314.949 63.809 313.154 59.899C311.423 55.9891 310.558 51.0215 310.558 44.9964C310.558 38.9071 311.423 33.9396 313.154 30.0937C314.949 26.1838 317.577 23.2994 321.038 21.4406C324.499 19.5177 328.826 18.5562 334.018 18.5562C338.761 18.5562 342.735 19.4856 345.94 21.3444C349.145 23.1392 351.548 25.8633 353.151 29.5168C354.817 33.1063 355.65 37.6252 355.65 43.0734V47.1116H319.307C319.435 51.1497 320.012 54.4828 321.038 57.1108C322.128 59.6747 323.73 61.5655 325.845 62.7834C327.96 63.9372 330.62 64.514 333.825 64.514C336.005 64.514 337.895 64.2576 339.498 63.7449C341.164 63.168 342.543 62.3668 343.632 61.3412C344.786 60.3156 345.651 59.0978 346.228 57.6877C346.805 56.2775 347.125 54.7392 347.19 53.0726H355.458C355.394 55.7647 354.881 58.2645 353.92 60.572C352.958 62.8154 351.548 64.7384 349.689 66.3408C347.831 67.9432 345.555 69.1931 342.863 70.0905C340.171 70.9879 337.094 71.4365 333.633 71.4365ZM319.5 40.7659H346.901C346.901 37.9457 346.581 35.5741 345.94 33.6511C345.299 31.7282 344.369 30.1578 343.151 28.94C341.998 27.7221 340.62 26.8568 339.017 26.344C337.479 25.7672 335.716 25.4787 333.729 25.4787C330.781 25.4787 328.281 26.0235 326.23 27.1132C324.179 28.2029 322.608 29.8694 321.519 32.1128C320.429 34.3562 319.756 37.2406 319.5 40.7659ZM385.922 70.2828V49.4191H366.789V42.112H385.922V21.1521H393.133V42.112H412.17V49.4191H393.133V70.2828H385.922Z" fill="#46CD04"/>
</svg>
